<?xml version="1.0" standalone="no"?><svg xmlns="http://www.w3.org/2000/svg" viewBox="0 0 1440 320"><path fill="#0099ff" fill-opacity="1" d="M0,224L9.2,234.7C18.5,245,37,267,55,272C73.8,277,92,267,111,261.3C129.2,256,148,256,166,261.3C184.6,267,203,277,222,250.7C240,224,258,160,277,165.3C295.4,171,314,245,332,266.7C350.8,288,369,256,388,224C406.2,192,425,160,443,165.3C461.5,171,480,213,498,229.3C516.9,245,535,235,554,229.3C572.3,224,591,224,609,192C627.7,160,646,96,665,85.3C683.1,75,702,117,720,122.7C738.5,128,757,96,775,117.3C793.8,139,812,213,831,234.7C849.2,256,868,224,886,186.7C904.6,149,923,107,942,106.7C960,107,978,149,997,186.7C1015.4,224,1034,256,1052,229.3C1070.8,203,1089,117,1108,96C1126.2,75,1145,117,1163,149.3C1181.5,181,1200,203,1218,218.7C1236.9,235,1255,245,1274,229.3C1292.3,213,1311,171,1329,144C1347.7,117,1366,107,1385,112C1403.1,117,1422,139,1431,149.3L1440,160L1440,320L1430.8,320C1421.5,320,1403,320,1385,320C1366.2,320,1348,320,1329,320C1310.8,320,1292,320,1274,320C1255.4,320,1237,320,1218,320C1200,320,1182,320,1163,320C1144.6,320,1126,320,1108,320C1089.2,320,1071,320,1052,320C1033.8,320,1015,320,997,320C978.5,320,960,320,942,320C923.1,320,905,320,886,320C867.7,320,849,320,831,320C812.3,320,794,320,775,320C756.9,320,738,320,720,320C701.5,320,683,320,665,320C646.2,320,628,320,609,320C590.8,320,572,320,554,320C535.4,320,517,320,498,320C480,320,462,320,443,320C424.6,320,406,320,388,320C369.2,320,351,320,332,320C313.8,320,295,320,277,320C258.5,320,240,320,222,320C203.1,320,185,320,166,320C147.7,320,129,320,111,320C92.3,320,74,320,55,320C36.9,320,18,320,9,320L0,320Z"></path></svg>